<?xml version="1.0" encoding="UTF-8"?>
<svg xmlns="http://www.w3.org/2000/svg" xmlns:xlink="http://www.w3.org/1999/xlink" version="1.1" id="Layer_1" x="0px" y="0px" width="100%" viewBox="0 0 1024 1024" xml:space="preserve">
<path fill="#000000" opacity="1.000000" stroke="none" d=" M898.620850,642.458130   C886.161865,679.358154 869.010803,713.442322 846.895447,745.031799   C827.514099,772.716125 805.383667,798.000793 780.214905,820.527649   C732.508972,863.226196 678.100952,893.621643 615.740601,909.238770   C596.210571,914.129822 576.450073,917.446167 556.413574,919.521606   C539.804565,921.242065 523.195190,921.562622 506.553070,921.342957   C470.778473,920.870850 435.804138,914.952454 401.461700,905.194397   C362.105652,894.011719 325.259674,877.310303 291.215027,854.509949   C262.811096,835.487244 237.491501,812.890015 214.678909,787.564819   C174.116241,742.534668 144.363785,691.227905 126.229080,633.242004   C118.374992,608.128418 112.485672,582.600464 108.982475,556.567200   C105.984215,534.286255 104.649750,511.820038 105.851364,489.352509   C108.309570,443.389557 117.748161,398.888733 134.779251,356.032959   C151.017044,315.173401 172.855957,277.723785 200.821426,243.706604   C226.732513,212.188385 256.419403,184.936249 290.379944,162.473541   C334.056244,133.584488 381.820587,114.248543 433.163757,104.085281   C450.718719,100.610321 468.513153,98.601807 486.453644,97.384827   C504.158875,96.183815 521.779114,96.623772 539.333435,97.866341   C574.747070,100.373093 609.403503,107.242546 642.994507,118.977463   C682.546265,132.794754 719.587280,151.640701 753.368652,176.382538   C796.438782,207.927567 832.078247,246.487686 859.747314,292.315887   C887.869568,338.894745 905.485474,389.336151 915.067993,442.663422   C918.028564,459.139374 919.625122,475.830048 920.641357,492.619324   C921.631775,508.983093 921.464417,525.254028 920.133606,541.483398   C918.341797,563.334351 914.543579,584.919250 909.226013,606.224121   C906.206421,618.321838 902.609558,630.238037 898.620850,642.458130  M676.501953,443.642120   C695.575562,443.151001 714.000305,446.220978 731.181335,454.710480   C746.508484,462.283966 757.837585,473.396057 760.496033,491.296692   C760.614380,492.093231 760.975586,492.919861 762.294800,492.984375   C774.606812,479.273376 780.746338,462.821808 781.542297,444.568268   C782.703308,417.944092 771.262146,396.294861 753.438110,377.443573   C738.611328,361.762360 721.016602,349.798035 702.024536,339.932159   C695.489441,336.537354 692.252686,333.598724 693.306213,325.113708   C695.424377,308.055206 685.455444,295.890137 672.676025,286.503906   C629.809631,255.019577 580.740479,239.366135 528.802185,231.344742   C513.847900,229.035187 498.806091,227.881973 483.705444,226.945908   C468.026093,225.973984 452.387390,225.971802 436.834045,227.678986   C416.736023,229.885040 397.470459,235.510040 378.758362,243.257034   C347.227661,256.311035 320.108887,275.690033 297.997131,301.415344   C263.962524,341.011932 240.953476,386.638031 226.732666,436.860260   C218.655228,465.386566 212.383881,494.226471 210.539993,523.821228   C209.192093,545.455200 210.805344,567.014038 215.924225,588.190918   C217.311066,593.928284 218.306610,599.800659 221.091431,605.233826   C221.946014,604.818420 222.535324,604.721252 222.783936,604.377625   C223.755997,603.033936 224.712433,601.662903 225.510239,600.211670   C231.966949,588.466858 239.778656,577.652039 248.959625,567.951294   C279.613861,535.561462 315.723907,510.966095 356.740692,493.559601   C364.003662,490.477356 371.554108,488.322998 379.567108,487.979248   C379.733917,490.227325 378.245392,490.664215 377.187744,491.305206   C350.853485,507.265289 329.885498,528.773193 311.465546,553.253479   C285.000519,588.425781 274.471283,627.725830 278.231323,671.327881   C280.301392,695.332520 288.715881,716.856140 302.140167,736.594299   C304.532532,740.111816 306.864807,743.802612 310.467957,746.289001   C312.364471,745.216309 312.449707,743.556152 312.640503,741.885803   C314.115356,728.973694 317.087616,716.381104 321.077606,704.039124   C335.430573,659.641846 363.229828,624.368225 396.595978,592.858643   C422.373444,568.515564 451.113129,548.049744 480.380341,528.229248   C517.110840,503.354431 554.426941,479.522614 595.450073,462.149414   C621.043396,451.310669 647.375671,443.561066 676.501953,443.642120  M612.012634,664.762756   C619.179199,639.182800 617.463928,613.450867 613.158386,587.717041   C611.213623,576.093384 609.144226,564.468689 608.739624,552.694275   C608.059509,532.903015 611.236145,513.640442 617.989258,494.994263   C618.482300,493.633087 619.322266,492.231079 617.888184,490.847900   C615.878296,490.572632 614.357056,491.776062 612.888000,492.743805   C583.619080,512.023315 561.175903,537.070190 548.302002,570.017578   C537.280579,598.223999 533.180603,628.036499 528.338745,657.674194   C523.728943,685.891541 518.400208,713.944946 507.011353,740.416687   C496.957794,763.784729 483.413696,784.744995 464.303802,801.822937   C460.043060,805.630676 455.767181,809.421509 451.212891,813.474060   C452.357239,814.082764 452.759949,814.456421 453.192383,814.494751   C454.179230,814.582214 455.207214,814.650391 456.172150,814.473694   C470.117126,811.918945 483.633423,807.941345 496.663269,802.314148   C529.540161,788.115295 556.417664,766.405273 577.782898,737.743835   C594.006775,715.979492 605.550415,692.022949 612.012634,664.762756  M510.616791,590.288513   C512.407288,579.504761 514.166382,568.715637 516.024597,557.943604   C516.282227,556.450073 517.011719,554.979492 515.483093,553.858887   C514.171692,552.897522 512.921082,553.751099 511.763672,554.360046   C510.737976,554.899658 509.775330,555.568481 508.819305,556.230103   C480.281555,575.979004 455.467926,599.729370 433.655884,626.635132   C398.320831,670.221924 375.880585,719.969727 363.707214,774.513550   C362.591248,779.513794 360.628998,784.583740 361.648010,790.181702   C364.120636,789.849121 366.126923,789.761841 368.040588,789.294861   C405.133698,780.242798 435.198700,760.334534 458.819061,730.468872   C476.790771,707.745422 487.304718,681.420532 495.636566,654.074341   C501.929352,633.420593 506.377625,612.312988 510.616791,590.288513  z"></path>
<path fill="#000000" opacity="1.000000" stroke="none" d=" M611.109497,326.662354   C624.569092,330.043274 637.528687,333.677399 650.159119,338.377106   C653.745972,339.711792 657.245178,339.595642 660.937988,338.952057   C663.959900,338.425446 667.101379,338.351379 670.161133,339.039001   C670.114868,340.717682 669.041443,340.967041 668.167969,341.325226   C661.706177,343.974945 655.301147,346.786743 648.733948,349.146057   C644.956421,350.503143 642.140869,352.691589 639.616455,355.736023   C634.194092,362.275360 628.511414,368.656830 621.542114,373.586914   C609.316406,382.235352 596.278503,383.312286 583.014709,376.232788   C569.296631,368.910889 560.031616,357.824249 556.262817,342.496704   C556.103943,341.850952 555.709229,341.164307 555.816345,340.566956   C557.225769,332.702881 552.054871,330.569519 546.039551,328.247894   C530.069458,322.084351 514.402161,315.093933 497.343597,312.276093   C496.331543,312.108917 495.380493,311.829773 494.972626,310.185608   C534.172729,312.063171 572.828003,316.492798 611.109497,326.662354  z"></path>
</svg>
